<?xml version="1.0"?>
<svg xmlns="http://www.w3.org/2000/svg" xmlns:xlink="http://www.w3.org/1999/xlink" version="1.1" viewBox="0 0 224 224" width="20px" height="20px"><g fill="none" fill-rule="nonzero" stroke="none" stroke-width="1" stroke-linecap="butt" stroke-linejoin="miter" stroke-miterlimit="10" stroke-dasharray="" stroke-dashoffset="0" font-family="none" font-weight="none" font-size="none" text-anchor="none" style="mix-blend-mode: normal"><path d="M0,224v-224h224v224z" fill="none"/><g fill="#ffffff"><g id="surface1"><path d="M168.3418,12.08594c-3.62305,0 -7.24609,1.3125 -9.89844,3.96485l-14.83398,14.84765c-2.73437,-2.73437 -7.17773,-2.73437 -9.89844,0l-19.79687,19.79688c-1.32617,1.32617 -2.06445,3.08985 -2.06445,4.96289c0,1.85938 0.73828,3.62305 2.06445,4.93555l0.16406,0.17773l-94.77344,94.62305c-1.76367,1.76367 -2.83008,4.10156 -3.03515,6.58984l-2.36524,29.38086l-2.46094,17.22656c-0.16406,1.09375 0.20508,2.1875 0.99805,2.98047c0.65625,0.65625 1.54492,1.01172 2.46094,1.01172c0.17773,0 0.3418,0 0.50586,-0.02734l17.21289,-2.44727l29.55859,-2.1875c2.51563,-0.17773 4.86719,-1.25781 6.64453,-3.03515l94.77344,-94.63672c1.29883,1.2168 2.9668,1.90039 4.75781,1.90039c1.87305,0 3.62305,-0.72461 4.94922,-2.05078l19.79688,-19.79687c2.73438,-2.73437 2.73438,-7.16406 0,-9.89844l14.86133,-14.84765c2.63867,-2.65235 4.08789,-6.16602 4.08789,-9.91211c0,-3.73242 -1.44922,-7.25977 -4.10156,-9.89844l-29.69531,-29.69531c-2.63867,-2.65235 -6.27539,-3.96485 -9.91211,-3.96485zM168.3418,19.01758c1.81836,0 3.63672,0.65625 4.96289,1.98242l29.69531,29.69531c1.32617,1.32617 2.05078,3.07617 2.05078,4.94922c0,1.87305 -0.72461,3.63672 -2.05078,4.94922l-14.84765,14.86133l-39.60742,-39.60742l14.86133,-14.84766c1.3125,-1.32617 3.13086,-1.98242 4.93555,-1.98242zM138.64648,35.84766l2.48828,2.47461l44.54297,44.54297l2.47461,2.48828l-4.94922,4.93555c-1.36719,-1.36719 -3.58203,-1.36719 -4.94922,0l-4.94922,4.96289c-1.36719,1.36719 -1.36719,3.58203 0,4.94922l-4.94922,4.94922l-49.50586,-49.50586l4.94922,-4.94922c0.68359,0.6836 1.57227,1.02539 2.47461,1.02539c0.90235,0 1.79102,-0.3418 2.47461,-1.02539l4.96289,-4.94922c1.36719,-1.36719 1.36719,-3.58203 0,-4.94922zM143.60938,52.14453c-0.90234,0 -1.79102,0.3418 -2.47461,1.02539l-4.96289,4.94922c-1.36719,1.36719 -1.36719,3.58203 0,4.94922c0.6836,0.6836 1.58594,1.02539 2.47461,1.02539c0.90235,0 1.80469,-0.3418 2.48828,-1.02539l4.93555,-4.94922c1.38086,-1.36719 1.38086,-3.58203 0,-4.94922c-0.68359,-0.68359 -1.57227,-1.02539 -2.46094,-1.02539zM155.96875,64.53125c-0.88867,0 -1.77734,0.32813 -2.46094,1.02539l-4.96289,4.93555c-1.36719,1.38086 -1.36719,3.58203 0,4.96289c0.6836,0.66992 1.58594,1.01172 2.48828,1.01172c0.88867,0 1.79102,-0.3418 2.47461,-1.01172l4.93555,-4.96289c1.38086,-1.36719 1.38086,-3.56836 0,-4.93555c-0.68359,-0.69727 -1.57226,-1.02539 -2.47461,-1.02539zM119.04102,65.7207l39.59375,39.60742l-92.03906,91.88867l-3.33594,-16.67969l58.06445,-58.06445c1.36719,-1.36719 1.36719,-3.58203 0,-4.94922c-1.36719,-1.36719 -3.56836,-1.36719 -4.94922,0l-58.07812,58.07813l-8.24414,-1.6543l-1.6543,-8.25781l48.17969,-48.16602c1.38086,-1.38086 1.38086,-3.58203 0,-4.96289c-1.36719,-1.36719 -3.56836,-1.36719 -4.93555,0l-48.17969,48.17969l-16.32422,-3.2539zM168.35547,76.89063c-0.90235,0 -1.79102,0.3418 -2.47461,1.03906l-4.94922,4.93555c-1.36719,1.38086 -1.36719,3.58203 0,4.96289c0.68359,0.66992 1.57227,1.02539 2.47461,1.02539c0.90235,0 1.79102,-0.35547 2.47461,-1.02539l4.94922,-4.96289c1.36719,-1.36719 1.36719,-3.56836 0,-4.93555c-0.6836,-0.69727 -1.57227,-1.03906 -2.47461,-1.03906zM113.91406,91.75195c-0.90234,0 -1.79102,0.3418 -2.47461,1.01172l-9.89844,9.89844c-1.38086,1.38086 -1.38086,3.58203 0,4.96289c0.66992,0.66992 1.57227,1.02539 2.47461,1.02539c0.88867,0 1.79102,-0.35547 2.46094,-1.02539l9.89844,-9.89844c1.38086,-1.38086 1.38086,-3.58203 0,-4.96289c-0.68359,-0.68359 -1.57227,-1.02539 -2.46094,-1.01172zM23.13281,163.81641l18.49805,3.6914l2.00977,10.10352c0.28711,1.38086 1.36719,2.46094 2.74805,2.73438l10.08985,2.02344l3.73242,18.67578l-26.63281,1.95508l-12.57812,-12.56445z"/></g></g></g></svg>
